<?xml version="1.0" encoding="UTF-8"?>
<svg id="Layer_2" data-name="Layer 2" xmlns="http://www.w3.org/2000/svg" viewBox="0 0 214.73 162.05">
  <defs>
    <style>
      .cls-1 {
        fill: #fff;
        stroke-width: 0px;
      }
    </style>
  </defs>
  <g id="Layer_1-2" data-name="Layer 1">
    <g>
      <path class="cls-1" d="M134.17.04c13.17-.42,25.92,3,37.8,9.17,10.82,5.61,20.1,13.37,26.91,23.61,3.71,5.57,7.29,11.35,9.95,17.47,2.87,6.59,4.57,13.65,5.33,20.93.86,8.28.79,16.56-.67,24.65-1.11,6.14-3.52,12.08-5.67,18-2.87,7.91-7.79,14.63-13.2,20.95-7,8.19-15.5,14.45-25.24,19.09-12.26,5.84-25.19,8.65-38.72,8.07-13.94-.6-27.09-4.19-39.03-11.67-1.47-.92-2.89-1.92-4.29-2.96-.44-.33-1.1-1.16-1-1.29,1.19-1.63,2.37-3.32,3.86-4.65.55-.49,2.16-.49,2.85-.05,15.23,9.68,31.79,13.86,49.74,11.84,8.4-.95,16.32-3.69,23.9-7.54,10.99-5.59,19.88-13.55,27-23.47,4.32-6.03,7.9-12.58,9.57-19.87,1.46-6.38,2.91-12.83,3.42-19.33.6-7.66-.95-15.19-3.13-22.61-2.01-6.86-4.97-13.21-8.85-19.13-7.62-11.62-17.88-20.14-30.43-26.16-13.41-6.44-27.46-7.84-41.91-5.86-7.93,1.09-15.51,3.75-22.59,7.61-2.48,1.35-4.87,2.85-7.38,4.12-.6.3-1.78.24-2.27-.16-1.26-1.05-2.44-2.3-3.33-3.67-.29-.44.16-1.84.69-2.25,2.69-2.07,5.34-4.31,8.34-5.84C107.71,2.97,120.33-.32,134.17.04Z"/>
      <path class="cls-1" d="M132.86,130.39c-4.22-.3-8.43-1.43-12.6-2.34-3.84-.91-7.86-1.91-9.18-3.72-.78-.93-.7-2.28.26-3.05,1.99-1.86,6.63-.95,9.4-.12,20.94,6.62,44.48-4.85,52.81-24.99,11.02-24.51-7.46-53.35-33.48-56.76-7.76-1.32-15.74.63-23.28,2.43-4.22.87-8.1-1.46-5.16-4.92,2.14-2.43,6.72-3.75,10.19-4.48,10.13-1.88,21.67-.63,31.32,2.94,9.05,3.4,16.73,9.65,22.16,17.62,13.65,18.83,10.92,46.23-5.25,62.37-9.38,9.67-23.71,15.11-37.03,15.04h-.16Z"/>
      <path class="cls-1" d="M34.78,81.44c-.23-5.66-.49-5.51,5.29-5.2.25.01.5.04.75.04,4.83.06,4.78.06,4.8,4.88.03,6.14.28,5.8-5.84,5.76-4.87-.03-4.87,0-4.99-5.48Z"/>
      <path class="cls-1" d="M94.14,105.35q-5.45.04-5.36-5.39t5.51-5.45,5.39,5.51c0,.41,0,.83,0,1.24-.02,3.79-.38,4.15-4.05,4.08-.5,0-.99,0-1.49,0Z"/>
      <path class="cls-1" d="M70.57,63.97c-.43-5.88-.05-5.49,5.51-5.5.17,0,.33,0,.5,0q4.84-.01,4.72,4.65c-.02.83-.03,1.66.02,2.49.22,3.6.04,3.81-3.5,3.86-.58,0-1.16,0-1.75,0-5.95,0-5.87.15-5.5-5.5Z"/>
      <path class="cls-1" d="M106.59,81.6c0-5.51,0-5.25,5.53-5.54,5.95-.31,5.07.82,5.06,5.2q0,5.67-5.74,5.68c-.5,0-1,.01-1.5,0-3.22-.08-3.57-.47-3.36-3.6.04-.58,0-1.16,0-1.75Z"/>
      <path class="cls-1" d="M75.85,36.01q-5.23-.09-5.21-5.42c0-.91-.32-1.97.04-2.7.48-.96,1.39-2.19,2.28-2.34,2.01-.34,4.12-.15,6.19-.06,1.7.07,2.54.96,2.33,2.77-.14,1.23-.19,2.48-.12,3.71.21,3.59-.23,4.1-3.77,4.04-.58,0-1.16,0-1.74,0Z"/>
      <path class="cls-1" d="M10.24,64.16q0,4.99-5.03,4.95T0,64.04t4.95-5.23q5.29-.15,5.28,5.35Z"/>
      <path class="cls-1" d="M94.24,86.82c-3.31-.05-5.5-2.22-5.5-5.45,0-3.33,2.52-5.63,6.03-5.53,2.97.09,5.02,2.47,4.92,5.72-.09,3.11-2.36,5.3-5.44,5.25Z"/>
      <path class="cls-1" d="M59.24,58.54c3.26,0,5.42,2.17,5.41,5.45,0,3.28-2.18,5.45-5.43,5.43-3.35-.02-5.4-2.11-5.37-5.46.04-3.44,2.02-5.43,5.39-5.43Z"/>
      <path class="cls-1" d="M99.76,62.92c.03,3.36-1.92,5.52-4.99,5.55-3.28.03-5.7-2.34-5.69-5.57.01-3.17,2.27-5.36,5.55-5.38,3.1-.02,5.11,2.09,5.13,5.41Z"/>
      <path class="cls-1" d="M71.06,81.38c-.02-3.4,1.9-5.53,4.99-5.53,3.38,0,5.6,2.23,5.57,5.6-.03,3.32-2.14,5.4-5.45,5.38-3.13-.01-5.09-2.1-5.1-5.46Z"/>
      <path class="cls-1" d="M75.95,52.4c-3.19-.04-5.26-2.17-5.24-5.36.02-3.24,2.37-5.76,5.28-5.68,2.91.08,5.5,2.77,5.45,5.67-.06,3.25-2.27,5.42-5.49,5.38Z"/>
      <path class="cls-1" d="M88.38,47.76c.04-3,2.2-5.1,5.28-5.14,3.21-.03,5.66,2.36,5.57,5.42-.09,2.81-2.98,5.52-5.78,5.41-2.86-.11-5.11-2.64-5.07-5.69Z"/>
      <path class="cls-1" d="M53.73,81.31c0-3.38,1.97-5.46,5.13-5.42,3.13.04,5.27,2.2,5.31,5.36.05,3.39-2.02,5.53-5.31,5.5-3.18-.03-5.14-2.1-5.13-5.45Z"/>
      <path class="cls-1" d="M129.91,86.83c-3.08.06-5.17-2.09-5.23-5.39-.06-3.29,1.98-5.56,5.01-5.59,3.05-.03,5.49,2.43,5.48,5.52,0,3.06-2.26,5.4-5.25,5.45Z"/>
      <path class="cls-1" d="M75.8,121.15c-3.12-.04-5.18-2.27-5.1-5.51.08-3.11,2.16-5.21,5.17-5.21,3.09,0,5.59,2.43,5.58,5.43,0,3.07-2.42,5.34-5.65,5.3Z"/>
      <path class="cls-1" d="M75.82,140.65c-3.1-.03-5.19-2.27-5.13-5.5.06-3.19,2.26-5.35,5.37-5.29,2.88.06,5.39,2.57,5.39,5.39,0,2.92-2.61,5.43-5.63,5.4Z"/>
      <path class="cls-1" d="M99.23,116.81c.04,3.01-2.18,5.05-5.53,5.1-3.2.04-5.23-1.85-5.31-4.96-.09-3.27,2.12-5.53,5.39-5.49,2.95.03,5.42,2.45,5.45,5.36Z"/>
      <path class="cls-1" d="M70.63,99.73c0-3.44,1.71-5.12,5.21-5.12,3.2,0,5.58,2.11,5.66,5.02.07,2.95-2.51,5.43-5.63,5.4-3.29-.04-5.23-2-5.23-5.29Z"/>
      <path class="cls-1" d="M112.52,69.46c-3.04.01-5.08-2.21-5.06-5.52.02-3.21,1.96-5.38,4.89-5.44,3.09-.07,5.52,2.28,5.58,5.41.06,3.08-2.33,5.54-5.4,5.56Z"/>
      <path class="cls-1" d="M40.98,69.36c-2.88-.03-5.37-2.6-5.32-5.48.06-2.94,2.55-5.33,5.51-5.27,2.71.06,5.23,2.63,5.22,5.34,0,2.88-2.57,5.44-5.42,5.41Z"/>
      <path class="cls-1" d="M117.19,99.74c0,3.48-1.72,5.25-5.14,5.28-3.07.03-5.4-2.25-5.39-5.29,0-3.12,2.14-5.15,5.42-5.15,3.58,0,5.11,1.55,5.11,5.15Z"/>
      <path class="cls-1" d="M53.28,99.82c-.03-3.35,1.79-5.17,5.19-5.18,3.17-.02,5.55,2.14,5.57,5.05.03,2.85-2.47,5.29-5.44,5.34-3.14.05-5.3-2.06-5.33-5.21Z"/>
      <path class="cls-1" d="M45.47,99.93c-.05,3.21-1.8,5-4.88,5.02-3.02.02-5.5-2.39-5.49-5.31.01-2.92,2.28-4.96,5.44-4.9,3.31.06,4.98,1.83,4.93,5.2Z"/>
      <path class="cls-1" d="M23.6,86.46c-2.68,0-5.37-2.5-5.42-5.04-.04-2.54,2.89-5.38,5.51-5.34,2.63.04,4.91,2.53,4.87,5.3-.05,3.03-2.04,5.07-4.96,5.07Z"/>
      <path class="cls-1" d="M23.86,58.86c2.78,0,5.21,2.49,5.15,5.25-.07,2.73-2.37,4.93-5.15,4.93-3.09,0-4.79-1.82-4.77-5.08.02-3.27,1.74-5.11,4.77-5.1Z"/>
      <path class="cls-1" d="M23.25,95.03c3.52-.01,4.82,1.26,4.85,4.74.03,3.43-1.37,4.8-4.87,4.77-2.96-.03-5.38-2.19-5.37-4.81,0-2.67,2.32-4.69,5.39-4.7Z"/>
      <path class="cls-1" d="M.21,81.22c.03-2.86,2.08-4.98,4.73-4.92,2.12.05,4.94,2.91,4.99,5.06.06,2.41-2.6,4.8-5.29,4.75-2.61-.05-4.46-2.08-4.43-4.88Z"/>
      <path class="cls-1" d="M5.06,95.4c2.97.08,3.98,1.21,3.94,4.41-.04,3.31-1.15,4.33-4.63,4.25-3.56-.08-4.4-.96-4.29-4.44.11-3.29,1.32-4.31,4.97-4.21Z"/>
    </g>
  </g>
</svg>